<svg fill="none" height="56" viewBox="0 0 200 56" width="200" xmlns="http://www.w3.org/2000/svg" xmlns:xlink="http://www.w3.org/1999/xlink"><clipPath id="a"><path d="m9 15h181.858v26h-181.858z"/></clipPath><g clip-path="url(#a)" fill="#000"><path d="m45.7743 16.0352c-1.3841 1.4212-1.7931 2.1782-2.784 4.3256l-9.1385 20.6393-6.4646-14.4599-6.386 14.4599-9.2172-20.6239c-.9437-2.1473-1.3684-2.8425-2.784-4.341h11.6866c-.8808.726-1.3369 1.6684-1.3369 2.8425 0 .8342.1415 1.4213.5977 2.5027l3.4918 8.1877 2.5795-6.1022-1.447-3.306c-.8494-1.9001-1.4471-3.0897-2.2965-4.1247h11.6867c-1.1325.726-1.6988 1.6684-1.6988 2.8425 0 .8342.1416 1.4213.5977 2.5027l3.5705 8.1877 3.5233-8.1877c.4561-1.0814.6292-1.6685.6292-2.4564 0-1.035-.7393-2.2863-1.5887-2.8734h6.7792z"/><path d="m57.9175 34.419c-1.1325 4.82-3.8536 6.4112-7.8016 6.4112-4.5142 0-8.7453-3.2288-8.7453-9.2846 0-5.8241 3.7435-9.9489 8.6509-9.9489 3.2087 0 7.723 1.6221 7.723 8.4967h-10.6643c.7393 3.6768 3.1773 5.577 6.559 5.577 1.7302-.0155 2.9413-.3245 4.2783-1.2514zm-11.0418-6.7356v.448h4.6558c0-3.4604-.7707-4.5419-2.265-4.5419-1.5099 0-2.3908 1.4986-2.3908 4.0939z"/><path d="m79.3084 22.3072c-2.9256-2.7344-5.8198-4.1557-8.0533-4.1557v15.2941c0 3.0898.8179 4.959 2.9571 6.8592h-13.3382c2.1549-1.9002 2.9571-3.7849 2.9571-6.8592v-15.2941c-2.2178 0-5.2535 1.4213-8.0533 4.1557l1.4156-7.3072c.9595.7261 2.7212 1.0351 4.6873 1.0351h11.2934c1.9818 0 3.7435-.309 4.6872-1.0351z"/><path d="m87.4246 40.3048h-11.2305c1.3842-1.5912 1.9819-2.6418 1.9819-5.1599v-5.6233c0-1.9774-.2832-2.9043-1.6201-4.1247l-.7707-.6952 8.4779-3.1206v4.3256c.8179-2.5027 2.0762-4.3256 4.1682-4.3256 1.6987 0 2.784 1.174 2.784 2.9043 0 1.8384-1.164 3.1206-2.784 3.1206-.3461-.8033-1.1954-1.1741-1.9819-1.1741-.6292 0-1.2426.17-1.5572.4789v8.0178c-.0157 2.6727.4404 3.3987 2.5324 5.3762z"/><path d="m110.609 37.1225c-.425 2.1783-2.265 3.7077-4.766 3.7077-2.123 0-3.743-1.2513-4.231-2.6726-1.054 1.8693-3.0357 2.6726-5.1591 2.6726-2.9256 0-4.9075-1.9002-4.9075-4.511 0-3.0434 2.2178-5.1598 7.3454-6.3803l2.3592-.5561v-3.1206c0-1.9466-.676-2.7344-1.8716-2.7344-1.1324 0-1.8717.726-1.8717 1.7302 0 .8651.4247 1.4213 1.1639 2.1165 0 1.1123-1.7616 2.2555-3.6019 2.2555-1.7931 0-3.0671-1.3595-3.0671-3.0125 0-2.9507 3.3188-5.0208 8.1944-5.0208 5.081 0 7.77 2.1164 7.77 6.8283v7.4462c0 .9424.567 1.5603 1.448 1.5603.519 0 .912-.1081 1.195-.309zm-9.359-.5252v-5.577l-.456.1391c-1.5099.448-2.548 1.4212-2.548 3.3678 0 1.6684.6763 2.6726 1.762 2.6726.582-.0155 1.038-.1854 1.242-.6025z"/><path d="m120.172 40.3048h-9.5c.991-.9424 1.62-2.3173 1.62-5.1599v-5.6233c0-1.9001-.252-2.8734-1.415-3.9548l-.818-.7261 8.745-3.2596v2.7035c1.022-1.6685 3.177-2.7035 5.332-2.7035 3.382 0 5.254 1.8074 5.254 5.0208v9.7171c0 1.9774.534 3.1824 1.384 3.9858h-9.249c.912-.8652 1.164-2.0393 1.164-2.9816v-9.918c0-1.4522-.488-2.1783-1.872-2.1783-.771 0-1.415.2781-1.84.6952v11.4011c.031.9423.267 2.0855 1.195 2.9816z"/><path d="m132.519 39.3005v-5.9323c2.548 3.2597 5.191 5.0671 7.66 5.0671 1.196 0 1.762-.6179 1.762-1.483 0-.8342-.456-1.3132-1.274-1.6221l-4.09-1.4831c-3.145-1.1432-4.545-3.0434-4.545-5.8859 0-3.6768 3.067-6.3494 7.44-6.3494 2.359 0 4.97.6643 6.275 1.5912v5.0672c-1.62-2.8117-4.278-4.372-6.842-4.372-1.305 0-1.982.4171-1.982 1.2204 0 .8034.488 1.1123 1.589 1.5604l4.845 1.9156c2.438.9732 3.523 3.0125 3.523 5.4842 0 4.063-3.004 6.7665-7.519 6.7665-2.249-.0154-4.577-.5098-6.842-1.5448z"/><path d="m147.588 23.8366 2.045-3.0897c2.611-3.8776 4.703-5.7469 8.226-5.7469 2.753 0 4.514 1.1741 4.514 2.9507 0 1.5294-1.274 2.6417-3.948 2.6417 0-2.1474-1.242-2.9507-2.469-2.9507-1.243 0-2.186.8651-2.186 2.2864 0 .9733.534 1.9465 2.154 2.1783h3.917l-1.416 1.7302h-2.406v10.2888c0 1.9465.314 3.6767 2.359 5.4379l.849.7261h-12.174c1.416-1.3904 2.265-3.0898 2.265-5.577v-10.8758z"/><path d="m175.255 34.419c-1.132 4.82-3.853 6.4112-7.801 6.4112-4.514 0-8.746-3.2288-8.746-9.2846 0-5.8241 3.744-9.9489 8.651-9.9489 3.209 0 7.723 1.6221 7.723 8.4967h-10.664c.739 3.6768 3.177 5.577 6.559 5.577 1.746-.0155 2.941-.3245 4.278-1.2514zm-11.041-6.7356v.448h4.655c0-3.4604-.77-4.5418-2.265-4.5418-1.51 0-2.39 1.4985-2.39 4.0938z"/><path d="m187.083 40.3048h-11.23c1.384-1.5912 1.982-2.6418 1.982-5.1599v-5.6233c0-1.9774-.283-2.9043-1.62-4.1247l-.771-.6952 8.478-3.1206v4.3256c.818-2.5027 2.076-4.3256 4.168-4.3256 1.699 0 2.784 1.174 2.784 2.9043 0 1.8384-1.164 3.1206-2.784 3.1206-.346-.8033-1.195-1.1741-1.982-1.1741-.629 0-1.243.17-1.557.4789v8.0178c-.016 2.6727.44 3.3987 2.532 5.3762z"/></g></svg>